<svg width="16" height="16" viewBox="0 0 16 16" fill="none" xmlns="http://www.w3.org/2000/svg">
<g clip-path="url(#clip0)">
<path d="M7.99805 1.04702C8.99877 1.04707 9.95623 1.2412 10.8281 1.59097C10.7749 1.67292 10.7185 1.75343 10.6562 1.82827C10.5623 1.94111 10.4456 2.05139 9.93848 2.50698C9.9009 2.54074 9.85096 2.585 9.79688 2.63491C9.23212 2.46774 8.62811 2.37714 7.99805 2.3771C4.71451 2.3771 2.13789 4.83737 2.1377 7.77066C2.13773 9.05678 2.62705 10.2419 3.4541 11.175C3.68719 11.4379 3.8685 11.6426 4.00195 11.799C4.12718 11.9458 4.24227 12.0855 4.31738 12.2091C4.39826 12.3423 4.47222 12.4718 4.5293 12.6222C4.58631 12.7726 4.61675 12.9182 4.64453 13.0714C4.67094 13.2172 4.67745 13.3833 4.68066 13.5812C5.02394 13.3839 5.29703 13.2332 5.56543 13.1574C5.66677 13.1288 5.70689 13.1202 5.81055 13.1017C6.00511 13.0671 6.23925 13.0694 6.4873 13.0802C6.74883 13.0916 7.09233 13.1159 7.53027 13.1476C7.68436 13.1588 7.8406 13.1652 7.99805 13.1652C11.2815 13.165 13.8573 10.7039 13.8574 7.77066C13.8574 7.39842 13.8155 7.03375 13.7363 6.68081C13.9727 6.44287 14.1057 6.19748 14.1621 6.08804C14.2409 5.93523 14.3147 5.75647 14.3584 5.65249C14.4658 5.39702 14.5408 5.22114 14.5967 5.0939C14.9759 5.91109 15.1875 6.81518 15.1875 7.77066C15.1874 11.5295 11.9215 14.4951 7.99805 14.4953C7.80869 14.4953 7.62049 14.4882 7.43457 14.4748C6.98823 14.4425 6.66758 14.4187 6.42969 14.4084C6.17863 14.3974 6.07733 14.4052 6.04297 14.4113C6.00215 14.4185 5.99134 14.4204 5.98438 14.422C5.97741 14.4236 5.96686 14.4266 5.92773 14.4376C5.80413 14.4726 5.64675 14.557 5.12109 14.8605L4.97949 14.9425C4.89837 14.9894 4.80431 15.0435 4.72168 15.0832C4.64234 15.1213 4.49233 15.1876 4.30469 15.1886C3.96354 15.1905 3.64753 15.0084 3.47852 14.7121C3.38561 14.549 3.36801 14.3858 3.36133 14.298C3.35439 14.2066 3.35449 14.0978 3.35449 14.0041C3.35449 13.5392 3.35136 13.3993 3.33496 13.3087C3.3094 13.1678 3.29725 13.1233 3.28613 13.0939C3.27499 13.0645 3.2553 13.0224 3.18066 12.8996C3.16855 12.8797 3.1212 12.8158 2.99023 12.6623C2.86693 12.5177 2.69584 12.324 2.45898 12.0568C1.43227 10.8984 0.807655 9.40503 0.807617 7.77066C0.807811 4.01174 4.07451 1.04702 7.99805 1.04702ZM11.3916 10.0011C8.66284 12.0603 5.72593 10.8444 4.6084 10.0011L5.3916 8.96402C6.27425 9.62993 8.5375 10.5265 10.6084 8.96402L11.3916 10.0011ZM12.8105 0.398585C12.8931 0.406443 12.9577 0.50203 13.085 0.693507C13.3639 1.11303 13.5031 1.3231 13.6807 1.48745C13.8053 1.60276 13.944 1.70148 14.0938 1.7814C14.3072 1.89519 14.5515 1.95815 15.0391 2.08413C15.2615 2.14161 15.3728 2.17085 15.4072 2.24624C15.4307 2.29763 15.4325 2.3623 15.4131 2.42691C15.3843 2.52163 15.2771 2.61778 15.0635 2.80972C14.5947 3.23089 14.3603 3.4419 14.1592 3.68374C14.0181 3.85337 13.8894 4.03392 13.7754 4.2228C13.6129 4.49209 13.4903 4.78248 13.2461 5.36343C13.1346 5.62853 13.0792 5.76134 12.999 5.81948C12.9443 5.85909 12.8825 5.87855 12.8262 5.87319C12.7437 5.86516 12.6799 5.76862 12.5527 5.5773C12.2741 5.15819 12.1344 4.9486 11.957 4.78433C11.8324 4.66902 11.6937 4.5703 11.5439 4.49038C11.3305 4.37652 11.0864 4.31367 10.5986 4.18765C10.376 4.13013 10.2649 4.10096 10.2305 4.02554C10.207 3.97412 10.2041 3.90956 10.2236 3.84487C10.2523 3.75009 10.3595 3.65404 10.5732 3.46206C11.0422 3.04079 11.2773 2.82991 11.4785 2.58804C11.6196 2.41842 11.7483 2.23785 11.8623 2.04898C12.0248 1.77975 12.1465 1.48904 12.3906 0.908351C12.5021 0.643171 12.5584 0.510409 12.6387 0.452296C12.6932 0.4128 12.7544 0.39338 12.8105 0.398585ZM13.5059 4.75991C13.5185 4.73149 13.5299 4.7035 13.542 4.67691L13.6592 4.43374C13.6098 4.5299 13.5608 4.63594 13.5059 4.75991Z" fill="black" fill-opacity="0.9"/>
</g>
<defs>
<clipPath id="clip0">
<rect width="16" height="16" fill="white"/>
</clipPath>
</defs>
</svg>
