<svg width="16" height="16" viewBox="0 0 16 16" fill="none" xmlns="http://www.w3.org/2000/svg">
<path d="M8.00488 1.00098C11.8687 1.00098 15.0008 4.13333 15.001 7.99707C15.001 8.04158 14.9957 8.08489 14.9873 8.12695C14.921 9.48317 13.8043 10.5623 12.4316 10.5625C11.7283 10.5625 11.0912 10.279 10.6279 9.82031C10.0508 10.6521 9.091 11.1982 8.00195 11.1982C6.2368 11.1982 4.80566 9.76712 4.80566 8.00195C4.80573 6.23684 6.23684 4.80573 8.00195 4.80566C8.69922 4.80566 9.34277 5.03116 9.86816 5.41016V4.80566H11.1943V7.83789C11.1971 7.89223 11.1982 7.94693 11.1982 8.00195C11.1982 8.01827 11.1965 8.03453 11.1963 8.05078C11.223 8.71048 11.7654 9.2373 12.4316 9.2373C13.1147 9.23709 13.668 8.68312 13.668 8C13.668 7.97916 13.6719 7.95883 13.6738 7.93848C13.6422 4.83391 11.1169 2.32715 8.00488 2.32715C4.87342 2.32732 2.33514 4.86561 2.33496 7.99707C2.33496 11.1287 4.87331 13.6678 8.00488 13.668C9.41973 13.668 10.7125 13.1506 11.7061 12.2939L12.208 11.8613L13.0742 12.8652L12.5723 13.2979C11.3472 14.3542 9.74944 14.9932 8.00488 14.9932C4.14114 14.993 1.00879 11.8609 1.00879 7.99707C1.00896 4.13344 4.14125 1.00115 8.00488 1.00098ZM8.00195 6.13184C6.96901 6.13191 6.13191 6.96901 6.13184 8.00195C6.13184 9.03495 6.96897 9.87298 8.00195 9.87305C9.00582 9.87305 9.82266 9.08153 9.86816 8.08887V7.90918C9.81965 6.91937 9.0038 6.13184 8.00195 6.13184Z" fill="black" fill-opacity="0.9"/>
</svg>
