<svg width="16" height="16" viewBox="0 0 16 16" fill="none" xmlns="http://www.w3.org/2000/svg">
<g id="ai-edit">
<path id="Union" d="M9.14415 1.77941C10.3703 0.553214 12.3594 0.553215 13.5856 1.77941C14.8117 3.00561 14.8117 4.99464 13.5856 6.22082L6.27305 13.5323C5.94876 13.8566 5.71278 14.0989 5.42735 14.2736C5.19002 14.4187 4.93122 14.5258 4.66075 14.5909C4.33527 14.6693 3.99666 14.6652 3.5377 14.6652H0.699811V11.8273C0.699811 11.3683 0.69566 11.0297 0.774029 10.7042C0.839204 10.4338 0.946237 10.1749 1.09141 9.93761C1.26605 9.65218 1.50832 9.41621 1.83262 9.09191L9.14415 1.77941ZM12.859 8.99426C12.9415 9.00211 13.0052 9.09788 13.1324 9.28918C13.4114 9.70883 13.5515 9.91875 13.7291 10.0831C13.8537 10.1984 13.9915 10.2972 14.1412 10.3771C14.3547 10.491 14.5988 10.5538 15.0865 10.6798C15.3092 10.7373 15.4212 10.7665 15.4557 10.8419C15.479 10.8932 15.4808 10.9572 15.4615 11.0216C15.433 11.1165 15.3259 11.2131 15.1119 11.4054C14.643 11.8266 14.4088 12.0376 14.2076 12.2794C14.0665 12.4491 13.9379 12.6296 13.8238 12.8185C13.6613 13.0878 13.5388 13.3781 13.2945 13.9591C13.1831 14.2241 13.1276 14.357 13.0475 14.4152C12.9927 14.4548 12.9309 14.4742 12.8746 14.4689C12.7921 14.461 12.7285 14.3645 12.6012 14.173C12.3223 13.7535 12.1821 13.5434 12.0045 13.379C11.88 13.2639 11.742 13.1659 11.5924 13.0861C11.3789 12.9721 11.1349 12.9093 10.6471 12.7833C10.4246 12.7258 10.3135 12.6965 10.2789 12.6212C10.2554 12.5698 10.2526 12.5052 10.2721 12.4405C10.3007 12.3457 10.4079 12.2498 10.6217 12.0577C11.0905 11.6366 11.3249 11.4255 11.526 11.1837C11.667 11.0141 11.7958 10.8335 11.9098 10.6446C12.0723 10.3753 12.1948 10.0842 12.4391 9.50304C12.5505 9.23804 12.6069 9.10604 12.6871 9.04797C12.7417 9.00845 12.8028 8.98897 12.859 8.99426ZM2.77305 10.0323C2.40395 10.4014 2.29929 10.5125 2.22618 10.632C2.15348 10.7508 2.09964 10.8803 2.067 11.0157C2.0342 11.152 2.02989 11.3049 2.02989 11.8273V13.3351H3.5377C4.06015 13.3351 4.21298 13.3308 4.34922 13.298C4.48468 13.2653 4.61415 13.2115 4.73301 13.1388C4.85251 13.0657 4.96352 12.961 5.33262 12.5919L6.42344 11.5001L3.86387 8.94054L2.77305 10.0323ZM12.6441 2.72082C11.9373 2.01402 10.7924 2.01402 10.0856 2.72082L4.80528 7.99914L7.36485 10.5587L12.6441 5.27941C13.3509 4.57263 13.3509 3.42762 12.6441 2.72082ZM4.17735 1.13C4.2378 1.13575 4.2844 1.20572 4.37755 1.34582C4.58203 1.65337 4.68487 1.80738 4.81505 1.92785C4.90621 2.01221 5.00725 2.08418 5.1168 2.14269C5.27328 2.22619 5.45258 2.27296 5.81016 2.36535C5.97301 2.40742 6.05429 2.42845 6.07969 2.48351C6.09692 2.5212 6.09885 2.56892 6.08458 2.61633C6.06343 2.68569 5.98509 2.75612 5.82872 2.8966C5.48505 3.20534 5.31306 3.35996 5.16563 3.53722C5.06222 3.66156 4.96796 3.79428 4.88438 3.93273C4.76533 4.13003 4.67564 4.34301 4.49669 4.76867C4.415 4.96296 4.37387 5.06008 4.31505 5.10265C4.27505 5.13155 4.2302 5.14556 4.18907 5.14172C4.12856 5.13596 4.08122 5.06529 3.9879 4.92492C3.7837 4.6178 3.68142 4.46425 3.55137 4.34386C3.46006 4.25936 3.3584 4.18662 3.24864 4.12804C3.09229 4.04472 2.91343 3.99865 2.55626 3.90636C2.39319 3.86424 2.31109 3.84338 2.28575 3.7882C2.26852 3.75052 2.26756 3.70279 2.28184 3.65539C2.30289 3.58597 2.38122 3.51569 2.5377 3.37511C2.88132 3.06642 3.05337 2.91172 3.20079 2.73449C3.30421 2.61014 3.39846 2.47745 3.48204 2.33898C3.60113 2.14165 3.69075 1.92876 3.86973 1.50304C3.95145 1.30867 3.99254 1.21164 4.05137 1.16906C4.09142 1.14011 4.13617 1.12611 4.17735 1.13Z" fill="black" fill-opacity="0.9"/>
</g>
</svg>
