<svg preserveAspectRatio="none" width="100%" height="100%" overflow="visible" style="display: block;" viewBox="0 0 16 16" fill="none" xmlns="http://www.w3.org/2000/svg">
<g id="ai-new-chat" clip-path="url(#clip0_0_4)">
<path id="Vector" d="M3.54677 13.7533L4.20111 13.6347L3.54677 13.7533ZM2.39883 12.0044L1.90118 12.4455L2.39883 12.0044ZM3.27898 13.0475L2.71062 13.3927V13.3927L3.27898 13.0475ZM4.27661 15.0604L4.6091 15.6363L4.6091 15.6363L4.27661 15.0604ZM3.89246 15.2351L3.88874 14.5701L3.89246 15.2351ZM3.62077 15.0783L4.19853 14.749V14.749L3.62077 15.0783ZM7.42722 14.4436L7.37921 15.1069L7.42722 14.4436ZM5.69885 14.3823L5.58235 13.7276L5.69885 14.3823ZM4.4346 14.9692L4.10212 14.3933L4.10211 14.3933L4.4346 14.9692ZM5.49882 14.4282L5.3181 13.7882L5.49882 14.4282ZM8 1V1.665C11.6841 1.665 14.585 4.4269 14.585 7.73214H15.25H15.915C15.915 3.60126 12.3241 0.335 8 0.335V1ZM15.25 7.73214H14.585C14.585 11.0374 11.6841 13.7993 8 13.7993V14.4643V15.1293C12.3241 15.1293 15.915 11.863 15.915 7.73214H15.25ZM8 14.4643V13.7993C7.82324 13.7993 7.64823 13.7929 7.47522 13.7804L7.42722 14.4436L7.37921 15.1069C7.58418 15.1217 7.79121 15.1293 8 15.1293V14.4643ZM4.4346 14.9692L4.10211 14.3933L3.94412 14.4845L4.27661 15.0604L4.6091 15.6363L4.76709 15.5451L4.4346 14.9692ZM2.39883 12.0044L2.89647 11.5633C1.96637 10.514 1.415 9.1806 1.415 7.73214H0.75H0.085C0.085 9.52891 0.771349 11.1708 1.90118 12.4455L2.39883 12.0044ZM0.75 7.73214H1.415C1.415 4.4269 4.31594 1.665 8 1.665V1V0.335C3.67594 0.335 0.085 3.60126 0.085 7.73214H0.75ZM3.58001 14.6582H4.24501C4.24501 14.2096 4.24782 13.8923 4.20111 13.6347L3.54677 13.7533L2.89244 13.8719C2.9122 13.9809 2.91501 14.1447 2.91501 14.6582H3.58001ZM2.39883 12.0044L1.90118 12.4455C2.1642 12.7422 2.35502 12.9575 2.49261 13.1188C2.63835 13.2896 2.69387 13.3651 2.71062 13.3927L3.27898 13.0475L3.84734 12.7022C3.76738 12.5706 3.64397 12.4192 3.50439 12.2556C3.35665 12.0824 3.15575 11.8558 2.89647 11.5633L2.39883 12.0044ZM3.54677 13.7533L4.20111 13.6347C4.17033 13.4649 4.13807 13.3088 4.07718 13.1483C4.0163 12.9879 3.93689 12.8496 3.84734 12.7022L3.27898 13.0475L2.71062 13.3927C2.79395 13.5299 2.81873 13.5807 2.83367 13.6201C2.84861 13.6595 2.86381 13.714 2.89244 13.8719L3.54677 13.7533ZM4.27661 15.0604L3.94413 14.4845C3.89261 14.5142 3.85306 14.5371 3.81903 14.5561C3.78478 14.5752 3.76439 14.5858 3.75207 14.5917C3.73922 14.5979 3.74603 14.5936 3.76591 14.5876C3.78765 14.581 3.83078 14.5705 3.88874 14.5701L3.89246 15.2351L3.89617 15.9001C4.08803 15.899 4.24242 15.8316 4.32782 15.7906C4.41661 15.748 4.5178 15.689 4.6091 15.6363L4.27661 15.0604ZM3.58001 14.6582H2.91501C2.91501 14.7636 2.91455 14.8807 2.92202 14.979C2.9292 15.0734 2.94801 15.2408 3.04301 15.4075L3.62077 15.0783L4.19853 14.749C4.22723 14.7994 4.23967 14.842 4.24483 14.8641C4.24955 14.8843 4.24927 14.8924 4.24819 14.8781C4.24715 14.8645 4.24614 14.8416 4.24558 14.8023C4.24502 14.7634 4.24501 14.7177 4.24501 14.6582H3.58001ZM3.89246 15.2351L3.88874 14.5701C4.01673 14.5694 4.13516 14.6378 4.19853 14.749L3.62077 15.0783L3.04301 15.4075C3.21754 15.7138 3.54368 15.9021 3.89617 15.9001L3.89246 15.2351ZM7.42722 14.4436L7.47522 13.7804C6.98815 13.7451 6.60832 13.7176 6.31905 13.7049C6.04295 13.6929 5.78981 13.6906 5.58235 13.7276L5.69885 14.3823L5.81535 15.037C5.86245 15.0286 5.98222 15.0215 6.26103 15.0337C6.52667 15.0453 6.88375 15.0711 7.37921 15.1069L7.42722 14.4436ZM4.4346 14.9692L4.76709 15.5451C5.34716 15.2102 5.53105 15.1101 5.67954 15.0682L5.49882 14.4282L5.3181 13.7882C4.96894 13.8868 4.60923 14.1005 4.10212 14.3933L4.4346 14.9692ZM5.69885 14.3823L5.58235 13.7276C5.46955 13.7476 5.42835 13.7571 5.3181 13.7882L5.49882 14.4282L5.67954 15.0682C5.7241 15.0556 5.73713 15.0523 5.74686 15.05C5.75659 15.0478 5.76977 15.0451 5.81535 15.037L5.69885 14.3823ZM5 7.5V8.165H8V7.5V6.835H5V7.5ZM8 7.5V8.165H11V7.5V6.835H8V7.5ZM8 4.5H7.335V7.5H8H8.665V4.5H8ZM8 7.5H7.335V10.5H8H8.665V7.5H8Z" fill="var(--stroke-0, black)" fill-opacity="0.9" style="fill:black;fill-opacity:0.9;"/>
</g>
<defs>
<clipPath id="clip0_0_4">
<rect width="16" height="16" fill="white" style="fill:white;fill-opacity:1;"/>
</clipPath>
</defs>
</svg>
