<svg width="14" height="14" viewBox="0 0 14 14" fill="none" xmlns="http://www.w3.org/2000/svg">
<path d="M11.7374 2.26256L11.326 2.67401V2.67401L11.7374 2.26256ZM11.7374 11.7374L11.326 11.326V11.326L11.7374 11.7374ZM2.26256 11.7374L2.67401 11.326H2.67401L2.26256 11.7374ZM1.75 5.25H1.16813V8.75H1.75H2.33187V5.25H1.75ZM5.25 12.25V12.8319H8.75V12.25V11.6681H5.25V12.25ZM12.25 8.75H12.8319V5.25H12.25H11.6681V8.75H12.25ZM8.75 1.75V1.16813H5.25V1.75V2.33187H8.75V1.75ZM12.25 5.25H12.8319C12.8319 4.44149 12.8331 3.77657 12.7626 3.25224C12.6899 2.71117 12.5313 2.23353 12.1489 1.85112L11.7374 2.26256L11.326 2.67401C11.4561 2.80416 11.5538 2.99528 11.6092 3.40731C11.6669 3.83607 11.6681 4.40859 11.6681 5.25H12.25ZM8.75 1.75V2.33187C9.59141 2.33187 10.1639 2.33311 10.5927 2.39076C11.0047 2.44615 11.1958 2.54386 11.326 2.67401L11.7374 2.26256L12.1489 1.85112C11.7665 1.4687 11.2888 1.31013 10.7478 1.23738C10.2234 1.16689 9.55851 1.16813 8.75 1.16813V1.75ZM8.75 12.25V12.8319C9.55851 12.8319 10.2234 12.8331 10.7478 12.7626C11.2888 12.6899 11.7665 12.5313 12.1489 12.1489L11.7374 11.7374L11.326 11.326C11.1958 11.4561 11.0047 11.5538 10.5927 11.6092C10.1639 11.6669 9.59141 11.6681 8.75 11.6681V12.25ZM12.25 8.75H11.6681C11.6681 9.59141 11.6669 10.1639 11.6092 10.5927C11.5538 11.0047 11.4561 11.1958 11.326 11.326L11.7374 11.7374L12.1489 12.1489C12.5313 11.7665 12.6899 11.2888 12.7626 10.7478C12.8331 10.2234 12.8319 9.55851 12.8319 8.75H12.25ZM1.75 8.75H1.16813C1.16813 9.55851 1.16689 10.2234 1.23738 10.7478C1.31013 11.2888 1.4687 11.7665 1.85112 12.1489L2.26256 11.7374L2.67401 11.326C2.54386 11.1958 2.44615 11.0047 2.39076 10.5927C2.33311 10.1639 2.33187 9.59141 2.33187 8.75H1.75ZM5.25 12.25V11.6681C4.40859 11.6681 3.83607 11.6669 3.40731 11.6092C2.99528 11.5538 2.80416 11.4561 2.67401 11.326L2.26256 11.7374L1.85112 12.1489C2.23353 12.5313 2.71117 12.6899 3.25224 12.7626C3.77657 12.8331 4.44149 12.8319 5.25 12.8319V12.25ZM1.75 5.25H2.33187C2.33187 4.40859 2.33311 3.83607 2.39076 3.40731C2.44615 2.99528 2.54386 2.80416 2.67401 2.67401L2.26256 2.26256L1.85112 1.85112C1.4687 2.23353 1.31013 2.71117 1.23738 3.25224C1.16689 3.77657 1.16813 4.44149 1.16813 5.25H1.75ZM5.25 1.75V1.16813C4.44149 1.16813 3.77657 1.16689 3.25224 1.23738C2.71117 1.31013 2.23353 1.4687 1.85112 1.85112L2.26256 2.26256L2.67401 2.67401C2.80416 2.54386 2.99528 2.44615 3.40731 2.39076C3.83607 2.33311 4.40859 2.33187 5.25 2.33187V1.75ZM1.75 4.375V4.95687H12.25V4.375V3.79313H1.75V4.375ZM1.75 8.3125V8.89437H12.25V8.3125V7.73063H1.75V8.3125ZM5.25 4.375H4.66813V12.25H5.25H5.83187V4.375H5.25ZM8.75 4.375H8.16813V12.25H8.75H9.33187V4.375H8.75Z" fill="black" fill-opacity="0.7"/>
</svg>
