<svg preserveAspectRatio="none" width="100%" height="100%" overflow="visible" style="display: block;" viewBox="0 0 16 16" fill="none" xmlns="http://www.w3.org/2000/svg">
<g id="folder">
<path id="Union" d="M4.35791 1.99707C4.73579 1.99707 4.99049 1.99535 5.23877 2.03125C5.78945 2.11089 6.31163 2.32805 6.75732 2.66113C6.95814 2.81127 7.1367 2.99266 7.40381 3.25977C7.4414 3.29736 7.46104 3.31581 7.4751 3.3291L7.47607 3.33008H7.47803C7.49733 3.33061 7.52389 3.33105 7.57666 3.33105H11.3325C11.942 3.33105 12.4665 3.32962 12.8843 3.38574C13.3213 3.4445 13.7408 3.57722 14.0806 3.91699C14.4201 4.25671 14.5531 4.67543 14.6118 5.1123C14.668 5.53011 14.6665 6.05445 14.6665 6.66406V7.99707C14.6665 9.2353 14.668 10.2318 14.563 11.0127C14.4554 11.8126 14.2249 12.4865 13.6899 13.0215C13.155 13.5564 12.4811 13.786 11.6812 13.8936C10.9003 13.9985 9.90459 13.9971 8.6665 13.9971H7.33252C6.09444 13.9971 5.09872 13.9985 4.31787 13.8936C3.51791 13.786 2.84407 13.5564 2.30908 13.0215C1.77412 12.4865 1.54363 11.8126 1.43604 11.0127C1.33104 10.2318 1.33252 9.2353 1.33252 7.99707V4.7793C1.33252 4.42543 1.3321 4.12009 1.35205 3.87012C1.3726 3.6129 1.41798 3.35677 1.54053 3.10938C1.7348 2.71756 2.05301 2.39935 2.44482 2.20508C2.69221 2.08253 2.94835 2.03715 3.20557 2.0166C3.45554 1.99665 3.76088 1.99707 4.11475 1.99707H4.35791ZM2.6665 7.33105V7.99707C2.6665 9.273 2.66803 10.1635 2.7583 10.835C2.846 11.487 3.00648 11.8322 3.25244 12.0781C3.49844 12.324 3.84352 12.4846 4.49561 12.5723C5.16697 12.6625 6.05677 12.6641 7.33252 12.6641H8.6665C9.94226 12.6641 10.8321 12.6625 11.5034 12.5723C12.1555 12.4846 12.5006 12.324 12.7466 12.0781C12.9925 11.8322 13.153 11.487 13.2407 10.835C13.331 10.1635 13.3325 9.273 13.3325 7.99707V7.33105H2.6665ZM4.11475 3.33105C3.73945 3.33105 3.49661 3.33097 3.31201 3.3457C3.13492 3.35984 3.06887 3.3844 3.03662 3.40039C2.90616 3.46513 2.80057 3.57071 2.73584 3.70117C2.71985 3.73342 2.69529 3.79947 2.68115 3.97656C2.66642 4.16116 2.6665 4.404 2.6665 4.7793V5.99707H13.3276C13.3233 5.70354 13.3146 5.47662 13.2896 5.29004C13.2507 5.00088 13.188 4.91012 13.1372 4.85938C13.0865 4.80868 12.996 4.74587 12.7075 4.70703C12.3992 4.66558 11.9799 4.66406 11.3325 4.66406H7.57666C7.49652 4.66406 7.39062 4.66571 7.28467 4.65039C7.06445 4.61852 6.85549 4.53164 6.67725 4.39844C6.59162 4.3344 6.51803 4.25875 6.46143 4.20215C6.16706 3.90778 6.06479 3.80795 5.9585 3.72852C5.69114 3.5288 5.37765 3.39932 5.04736 3.35156C4.91617 3.33263 4.77359 3.33106 4.35791 3.33105H4.11475Z" fill="var(--fill-0, black)" fill-opacity="0.9" style="fill:black;fill-opacity:0.9;"/>
</g>
</svg>
