<svg preserveAspectRatio="none" width="100%" height="100%" overflow="visible" style="display: block;" viewBox="0 0 44.1623 37.7574" fill="none" xmlns="http://www.w3.org/2000/svg">
<g id="&#230;&#181;&#183;&#231;&#141;&#173;">
<path id="Vector 6209 (Stroke)" d="M25.9186 7.71119C27.9969 2.50858 33.7788 1.45331 38.4101 3.65829C43.0415 5.86326 44.7887 11.5954 42.4567 16.1694C41.0531 18.9224 40.2662 20.4659 38.8626 23.2189C37.7686 25.3645 35.8859 27.0013 33.611 27.7843C24.1661 31.0351 17.6056 41.8415 9.42585 36.1086C3.479 31.9407 0.733133 25.2777 3.39098 18.5196C6.51069 10.587 19.3061 18.5114 24.0297 11.4159C24.9297 10.0641 25.3162 9.21931 25.9186 7.71119Z" fill="#0088C2"/>
<path id="Vector" d="M42.3331 10.2693C43.3433 10.1183 44.0398 9.17692 43.8888 8.16671C43.7378 7.1565 42.7964 6.46 41.7862 6.61103C40.776 6.76206 40.0795 7.70343 40.2305 8.71363C40.3815 9.72384 41.3229 10.4203 42.3331 10.2693Z" fill="black"/>
<path id="Vector_2" d="M27.5643 3.49519C28.4303 3.36571 29.0274 2.55871 28.8979 1.69268C28.7685 0.826662 27.9615 0.229571 27.0954 0.359044C26.2294 0.488517 25.6323 1.29552 25.7618 2.16155C25.8913 3.02757 26.6983 3.62466 27.5643 3.49519Z" fill="black"/>
<path id="Vector 6209 (Stroke)_2" d="M24.2034 5.79845C26.5354 1.22444 32.1281 -0.590116 36.6949 1.74555C41.2618 4.08121 43.0735 9.68267 40.7415 14.2567L37.1474 21.3061C36.0535 23.4518 34.1707 25.0885 31.8958 25.8715L9.23439 35.1716L1.6758 16.6068L22.3145 9.50319L24.2034 5.79845Z" fill="white"/>
<path id="Vector_3" d="M37.6581 3.11103C40.6762 5.34685 41.3784 8.85448 39.6021 12.877C37.6619 17.2708 32.6288 17.1664 29.0742 15.1401C25.0968 12.8727 22.6624 9.75072 24.6809 5.94335C25.2209 4.92466 25.9341 3.30886 27.3056 2.2644C29.4805 0.608056 33.7293 0.200648 37.6581 3.11103Z" fill="#FEFFFF"/>
<path id="Star 20" d="M26.1423 10.2212C26.3672 10.0848 26.6301 10.3284 26.5114 10.5631L26.0012 11.5712C25.7114 12.144 25.7132 12.8209 26.0061 13.3922L26.4341 14.2266C26.5454 14.4438 26.3251 14.6817 26.1001 14.5873L25.2471 14.2295C24.6485 13.9785 23.9654 14.0326 23.4138 14.3749L22.3997 15.0041C22.1738 15.1443 21.9071 14.8973 22.0295 14.6613L22.5791 13.6019C22.8781 13.0257 22.8797 12.3405 22.5835 11.7629L22.1614 10.9399C22.0501 10.7227 22.2704 10.4848 22.4954 10.5792L23.3602 10.9419C23.9522 11.1902 24.6273 11.1401 25.1762 10.8072L26.1423 10.2212Z" fill="#3DE8FF"/>
<path id="Vector 6209 (Stroke)_3" d="M24.2037 5.79811C26.282 0.595492 32.0639 -0.459771 36.6953 1.7452C41.3266 3.95018 43.0738 9.68232 40.7418 14.2563C39.3382 17.0093 38.5513 18.5528 37.1477 21.3058C36.0538 23.4514 34.171 25.0882 31.8961 25.8712C22.4513 29.1221 15.8907 39.9284 7.71101 34.1955C1.76416 30.0276 -0.981711 23.3646 1.67613 16.6065C4.79584 8.67391 17.5912 16.5983 22.3149 9.50285C23.2148 8.15102 23.6013 7.30622 24.2037 5.79811Z" stroke="black" stroke-width="1.31765" stroke-linejoin="round"/>
<g id="Group 2119905405">
<ellipse id="Ellipse 9537" cx="36.2933" cy="7.55997" rx="0.887395" ry="1.03529" transform="rotate(-8.30957 36.2933 7.55997)" fill="black"/>
<ellipse id="Ellipse 9538" cx="28.4082" cy="4.0446" rx="0.748253" ry="0.941176" transform="rotate(57.9369 28.4082 4.0446)" fill="black"/>
<path id="Vector 5921" d="M33.8134 8.90681C33.7918 8.90066 33.7684 8.90178 33.7478 8.91125C33.7271 8.9207 33.711 8.93753 33.7029 8.95832C33.6948 8.97911 33.6952 9.0024 33.7039 9.02335C33.7127 9.04432 33.7291 9.06104 33.7491 9.07115C33.7491 9.07115 33.7491 9.07115 33.7491 9.07115C33.841 9.11764 33.9318 9.16539 34.0217 9.21452C34.8303 9.65697 35.5635 10.2024 36.2032 10.839C36.8413 11.4761 37.388 12.2064 37.7793 13.0363C37.8227 13.1285 37.8641 13.2219 37.9033 13.3165C37.9119 13.3372 37.9273 13.3549 37.9476 13.3652C37.9678 13.3755 37.991 13.3776 38.0124 13.3711C38.0337 13.3645 38.0517 13.3497 38.0627 13.3299C38.0737 13.31 38.0765 13.2867 38.072 13.2647C38.072 13.2647 38.072 13.2647 38.072 13.2647C38.0506 13.1613 38.0256 13.0582 37.9973 12.9559C37.7429 12.0336 37.2172 11.1841 36.5354 10.5057C35.8531 9.82547 35.014 9.30947 34.1151 9.00178C34.0152 8.96753 33.9147 8.93591 33.8134 8.90681Z" fill="black"/>
<path id="Vector 5922" d="M33.6209 9.75747C33.6012 9.74787 33.5785 9.74402 33.5567 9.74853C33.5349 9.75303 33.5158 9.7653 33.5034 9.78306C33.491 9.80083 33.486 9.82295 33.4893 9.84498C33.4926 9.86702 33.504 9.88695 33.5198 9.90214C33.5198 9.90214 33.5198 9.90214 33.5198 9.90214C33.5649 9.94565 33.6079 9.98889 33.651 10.0334C34.0353 10.4323 34.3412 10.8737 34.6065 11.3428C34.8709 11.8118 35.0975 12.31 35.2992 12.8329C35.3212 12.8894 35.3437 12.9506 35.365 13.0078C35.3725 13.0284 35.3861 13.0469 35.4049 13.0588C35.4238 13.0707 35.446 13.0751 35.4673 13.0709C35.4885 13.0667 35.5074 13.0542 35.5204 13.0361C35.5333 13.018 35.5389 12.9957 35.5381 12.9738C35.5381 12.9738 35.5381 12.9738 35.5381 12.9738C35.5358 12.911 35.5311 12.8439 35.5258 12.7812C35.4746 12.2026 35.307 11.6266 35.0162 11.1114C34.7268 10.5964 34.3041 10.1437 33.7934 9.84986C33.7365 9.81687 33.6797 9.78661 33.6209 9.75747Z" fill="black"/>
<path id="Vector 5924" d="M27.1643 6.67289C27.1825 6.6857 27.2048 6.69258 27.2273 6.69078C27.2498 6.68899 27.2706 6.67884 27.2853 6.66229C27.3 6.64574 27.3076 6.62392 27.3067 6.60136C27.3058 6.57879 27.2964 6.55749 27.2815 6.54093C27.2815 6.54093 27.2815 6.54093 27.2815 6.54093C27.2207 6.47514 27.1538 6.41083 27.0899 6.35141C26.4961 5.80835 25.7782 5.39157 24.991 5.16542C24.2062 4.93852 23.3447 4.9275 22.5723 5.18047C22.4874 5.208 22.4033 5.23849 22.3192 5.27226C22.2986 5.28065 22.2807 5.29566 22.2701 5.31558C22.2594 5.33548 22.2567 5.35844 22.2627 5.37974C22.2687 5.40105 22.2829 5.41926 22.3024 5.43072C22.3218 5.44218 22.3448 5.44574 22.3668 5.44218C22.3668 5.44218 22.3668 5.44218 22.3668 5.44218C22.4529 5.42823 22.5375 5.41682 22.6217 5.4075C23.3874 5.32129 24.1388 5.41131 24.8619 5.61796C25.5846 5.82585 26.2852 6.13963 26.9498 6.53679C27.0208 6.57939 27.099 6.62911 27.1643 6.67289Z" fill="black"/>
<path id="Vector 5925" d="M26.8832 7.32529C26.9041 7.33223 26.9271 7.33292 26.9482 7.32538C26.9692 7.31786 26.9864 7.30295 26.9962 7.28352C27.006 7.26408 27.0078 7.24138 27.0014 7.21999C26.995 7.19857 26.9808 7.18045 26.9628 7.16778C26.9628 7.16778 26.9628 7.16778 26.9628 7.16778C26.9056 7.12791 26.8478 7.09008 26.7888 7.054C26.2546 6.72669 25.6271 6.54978 25.0013 6.51496C24.374 6.48023 23.7468 6.5768 23.1632 6.7946C23.0996 6.8189 23.0341 6.84514 22.97 6.87474C22.9502 6.88429 22.9332 6.89984 22.9234 6.91991C22.9135 6.93996 22.9116 6.96265 22.9181 6.98343C22.9246 7.00421 22.9391 7.02174 22.9586 7.03261C22.9781 7.0435 23.001 7.0466 23.0227 7.04317C23.0227 7.04317 23.0227 7.04317 23.0227 7.04317C23.0831 7.03516 23.1532 7.02681 23.2171 7.02062C23.811 6.9638 24.3964 6.95304 24.9745 6.98479C25.5527 7.01814 26.1246 7.09849 26.6939 7.26606C26.7568 7.28457 26.8197 7.30418 26.8832 7.32529Z" fill="black"/>
<path id="Ellipse 111783" d="M32.892 7.56271C32.532 8.51726 31.5705 8.57405 30.439 8.14741C29.3075 7.72076 28.4345 6.97223 28.7944 6.01768C29.1543 5.06314 30.7435 4.65076 31.6313 4.98551C32.5191 5.32027 33.2519 6.60817 32.892 7.56271Z" fill="black"/>
<path id="Vector 6210" d="M30.0831 8.30096C30.0831 8.30096 29.4624 9.19733 28.3597 8.69717M30.0831 8.30096C30.0831 8.30096 29.8515 9.53585 30.7901 10.0111M30.0831 8.30096L30.4633 7.59309" stroke="black" stroke-width="0.564706" stroke-linecap="round" stroke-linejoin="round"/>
</g>
<path id="Vector 6214" d="M22.1288 10.3027C20.6189 8.3187 15.1771 10.0885 14.5368 11.8065C14.3044 12.4301 15.247 14.1852 17.9397 14.1284C20.6323 14.0716 23.6374 12.2851 22.1288 10.3027Z" fill="white" stroke="black" stroke-width="1.31765"/>
<path id="Vector 6211 (Stroke)" d="M32.8872 21.6775L31.0101 17.645C30.7644 17.1172 30.3543 16.6849 29.843 16.4135L29.7932 16.3877L27.0168 14.9883C25.7079 14.3286 23.7822 14.6347 23.0228 16.1689C22.2633 17.7031 22.7494 19.3849 24.0583 20.0446L26.0095 21.028L27.4949 24.2191C27.8707 24.9396 28.8528 26.659 30.7083 26.2975" stroke="black" stroke-width="1.31765" stroke-linecap="round"/>
</g>
</svg>
