<svg preserveAspectRatio="none" width="100%" height="100%" overflow="visible" style="display: block;" viewBox="0 0 15.33 13.33" fill="none" xmlns="http://www.w3.org/2000/svg">
<path id="Vector" d="M5.665 0.665002V12.665M2.165 3.665H4.165M2.165 6.665H4.165M4.665 12.665H10.665C12.5506 12.665 13.4934 12.665 14.0792 12.0792C14.665 11.4934 14.665 10.5506 14.665 8.665V4.665C14.665 2.77938 14.665 1.83657 14.0792 1.25079C13.4934 0.665002 12.5506 0.665002 10.665 0.665002H4.665C2.77938 0.665002 1.83657 0.665002 1.25079 1.25079C0.665002 1.83657 0.665002 2.77938 0.665002 4.665V8.665C0.665002 10.5506 0.665002 11.4934 1.25079 12.0792C1.83657 12.665 2.77938 12.665 4.665 12.665Z" stroke="black" stroke-opacity="0.7" stroke-width="1.33"/>
</svg>
