<svg preserveAspectRatio="none" width="100%" height="100%" overflow="visible" style="display: block;" viewBox="0 0 94 16" fill="none" xmlns="http://www.w3.org/2000/svg">
<g id="text">
<path id="Subtract" d="M16.3434 15.1818L13.5362 15.1773L10.5742 5.63813L7.61211 15.1773L4.81033 15.1986L0 0.5H3.09472L6.17092 9.90012L9.0898 0.5H12.0585L14.9481 9.80649L17.8698 0.5H20.9525L16.3434 15.1818Z" fill="black"/>
<path id="Subtract_2" fill-rule="evenodd" clip-rule="evenodd" d="M28.6133 0.977205C30.5297 1.09139 32.2273 1.84422 33.3873 3.15539C34.5564 4.47672 34.9957 6.19618 34.8315 8.19228L34.7668 9.43667H23.7426C23.8657 10.0711 24.1024 10.5937 24.423 11.0098C24.959 11.7056 25.8529 12.2645 27.2739 12.4778C28.8789 12.7187 31.645 12.7166 33.8135 10.5828V14.1307C31.1853 15.6265 28.4051 15.5276 26.8518 15.2944C24.8575 14.9951 23.2402 14.1394 22.1689 12.7489C21.1055 11.3686 20.7043 9.62289 20.82 7.76877C21.0638 3.86264 24.1321 0.974609 27.93 0.974609H28.5711L28.6133 0.977205ZM27.824 3.82404C26.0549 3.86532 24.5542 4.93937 23.9435 6.58854H31.9884C31.8785 5.96686 31.6163 5.45028 31.2565 5.04358C30.6755 4.38685 29.7403 3.90594 28.4812 3.82274H27.93L27.824 3.82404Z" fill="black"/>
<path id="Union" fill-rule="evenodd" clip-rule="evenodd" d="M53.4509 1.74331C55.3792 1.24257 58.0172 0.791198 60.3441 1.29014C61.275 1.48975 62.0679 1.84706 62.7029 2.39341C63.3427 2.94398 63.7421 3.6176 63.9882 4.32184C64.4457 5.63068 64.41 7.21359 64.41 8.50762V8.52746L64.3149 15.3292L61.4692 15.2895L61.4838 14.2369C59.7403 14.8413 57.9436 15.2664 56.367 15.3196C55.2495 15.3572 54.0855 15.2145 53.1198 14.6689C52.0742 14.0781 51.3969 13.0884 51.2339 11.7835C51.0452 10.2722 51.6909 9.07125 52.6711 8.23171C53.594 7.4412 54.829 6.9436 56.0415 6.62259C57.7991 6.15727 59.7996 5.98912 61.4725 6.00846C61.4341 5.73233 61.3799 5.48555 61.3019 5.26231C61.189 4.93937 61.041 4.71952 60.8474 4.55288C60.6488 4.38205 60.3216 4.19825 59.7479 4.07522C58.0903 3.7198 55.9847 4.02788 54.1658 4.50021C53.4336 4.69037 52.7803 4.89848 52.2667 5.0767V2.08042C52.6313 1.96789 53.0289 1.8529 53.4509 1.74331ZM61.5589 8.85807C60.092 8.832 58.2907 8.9732 56.7693 9.37597C55.7406 9.64832 54.9772 10.0052 54.5216 10.3954C54.1232 10.7367 54.0098 11.0431 54.0581 11.4305C54.1124 11.8645 54.2789 12.0531 54.5191 12.1889C54.8394 12.3698 55.4035 12.5022 56.2712 12.4729C57.7413 12.4234 59.6347 11.9279 61.5265 11.1855L61.5589 8.85807Z" fill="black"/>
<path id="Rectangle 1329137990 (Stroke)" d="M47.4283 7.14556C47.4283 5.31042 45.9417 3.82274 44.1079 3.82274H39.4593V12.3671H44.1079C45.9417 12.3671 47.4283 10.8795 47.4283 9.04431V7.14556ZM50.2744 9.04431C50.2744 12.4524 47.5136 15.2153 44.1079 15.2153H36.6133V0.974609H44.1079C47.5136 0.974609 50.2744 3.73744 50.2744 7.14556V9.04431Z" fill="black"/>
<path id="Union_2" fill-rule="evenodd" clip-rule="evenodd" d="M82.1812 1.7433C84.1095 1.24256 86.7475 0.791215 89.0744 1.29012C90.0052 1.48973 90.7982 1.84708 91.4332 2.3934C92.073 2.94394 92.4723 3.61762 92.7185 4.32182C93.176 5.63065 93.1402 7.21359 93.1402 8.50761V8.52745L93.0452 15.3292L90.1995 15.2895L90.2141 14.2369C88.4706 14.8412 86.6741 15.2664 85.0975 15.3196C83.98 15.3572 82.8159 15.2145 81.8503 14.6689C80.8047 14.0781 80.1273 13.0884 79.9644 11.7835C79.7757 10.2722 80.4213 9.07124 81.4015 8.23169C82.3245 7.4412 83.5594 6.94359 84.772 6.62258C86.5296 6.15726 88.5301 5.9891 90.203 6.00845C90.1645 5.73233 90.1102 5.48552 90.0322 5.2623C89.9193 4.93939 89.7713 4.71949 89.5777 4.55286C89.3791 4.38206 89.0518 4.19822 88.4781 4.07521C86.8206 3.71982 84.7149 4.02787 82.8961 4.5002C82.1639 4.69035 81.5106 4.89846 80.997 5.07669V2.0804C81.3616 1.96788 81.7592 1.85289 82.1812 1.7433ZM90.2892 8.85806C88.8223 8.832 87.0211 8.9732 85.4998 9.37595C84.4711 9.6483 83.7077 10.0052 83.252 10.3954C82.8536 10.7367 82.7402 11.0431 82.7886 11.4305C82.8428 11.8646 83.0094 12.0531 83.2496 12.1889C83.5699 12.3698 84.134 12.5022 85.0017 12.4729C86.4717 12.4234 88.3651 11.928 90.2567 11.1857L90.2892 8.85806Z" fill="black"/>
<path id="Union_3" d="M71.0264 2.77734H78.3193V5.81543H71.0234V6.20312C70.9996 7.69829 70.9775 9.19408 70.9775 10.6895C70.9776 11.1371 71.0842 11.4662 71.2451 11.71C71.4058 11.9532 71.6258 12.1196 71.8682 12.2344C72.3595 12.4669 72.9363 12.4853 73.2646 12.4854C73.7777 12.4853 74.279 12.4421 74.7686 12.3564C75.2605 12.2704 75.7265 12.1538 76.166 12.0068C76.6056 11.8536 77.0164 11.6761 77.3984 11.4746C77.7455 11.2888 78.0578 11.0937 78.3359 10.8896L78.6016 10.6953V13.9756L78.5283 14.0186C78.1422 14.2417 77.7294 14.4405 77.29 14.6152C76.8173 14.8055 76.3243 14.9676 75.8115 15.1006C75.2973 15.234 74.7653 15.3321 74.2168 15.3955C73.743 15.4563 73.2647 15.4904 72.7822 15.498L72.5752 15.5C71.3631 15.5 70.369 15.2869 69.3535 14.6387C68.8718 14.3311 68.484 13.9287 68.1914 13.4355V13.4346C67.9303 12.9852 67.6921 12.4318 67.6572 11.7842H67.6445V5.81543H65.9863V2.77734H67.6445V0.689453H71.0264V2.77734Z" fill="black"/>
</g>
</svg>
